<?xml version="1.0" encoding="UTF-8"?>
<!DOCTYPE svg PUBLIC "-//W3C//DTD SVG 1.1//EN" "http://www.w3.org/Graphics/SVG/1.1/DTD/svg11.dtd">
<svg xmlns="http://www.w3.org/2000/svg" version="1.1" width="2048px" height="2048px" style="shape-rendering:geometricPrecision; text-rendering:geometricPrecision; image-rendering:optimizeQuality; fill-rule:evenodd; clip-rule:evenodd" xmlns:xlink="http://www.w3.org/1999/xlink">
<g><path style="opacity:1" fill="#FFFFFF" d="M 338.5,1274.5 C 348.111,1272.53 358.111,1271.86 368.5,1272.5C 431.594,1436.91 540.261,1561.41 694.5,1646C 861.21,1731.4 1034.88,1749.07 1215.5,1699C 1410.84,1637.98 1554.34,1516.15 1646,1333.5C 1722.14,1169.21 1734.47,1000.21 1683,826.5C 1630.11,662.76 1531.28,534.927 1386.5,443C 1234.5,351.385 1070.83,320.385 895.5,350C 724.78,383.398 584.947,467.232 476,601.5C 394.224,706.119 345.724,824.785 330.5,957.5C 320.81,957.832 311.144,957.498 301.5,956.5C 322.026,778.477 394.692,626.144 519.5,499.5C 521.749,498.92 523.415,497.587 524.5,495.5C 628.775,393.008 753.108,326.508 897.5,296C 1097.15,257.716 1283.15,292.049 1455.5,399C 1619.93,507.552 1727.77,657.385 1779,848.5C 1822.83,1031.51 1802.83,1207.18 1719,1375.5C 1639.84,1526.66 1523.34,1639.16 1369.5,1713C 1201.46,1789.56 1028.12,1804.23 849.5,1757C 644.678,1696.74 490.511,1573.57 387,1387.5C 367.51,1351.19 351.343,1313.53 338.5,1274.5 Z"/></g>
<g><path style="opacity:1" fill="#FFFFFF" d="M 980.5,428.5 C 981.167,429.5 981.833,430.5 982.5,431.5C 987.687,459.191 1003.35,478.358 1029.5,489C 1034.02,490.797 1038.69,491.964 1043.5,492.5C 1043.5,493.167 1043.5,493.833 1043.5,494.5C 1006.8,503.035 985.969,526.035 981,563.5C 975.168,523.001 952.001,499.835 911.5,494C 950.316,488.681 973.316,466.848 980.5,428.5 Z"/></g>
<g><path style="opacity:1" fill="#FFFFFF" d="M 982.5,431.5 C 981.833,430.5 981.167,429.5 980.5,428.5C 980.343,427.127 980.51,425.793 981,424.5C 981.977,426.74 982.477,429.073 982.5,431.5 Z"/></g>
<g><path style="opacity:1" fill="#FFFFFF" d="M 1043.5,492.5 C 1048.63,493.614 1048.63,494.281 1043.5,494.5C 1043.5,493.833 1043.5,493.167 1043.5,492.5 Z"/></g>
<g><path style="opacity:1" fill="#FFFFFF" d="M 524.5,495.5 C 523.415,497.587 521.749,498.92 519.5,499.5C 520.585,497.413 522.251,496.08 524.5,495.5 Z"/></g>
<g><path style="opacity:1" fill="#FFFFFF" d="M 1393.5,641.5 C 1392.83,642.5 1392.17,643.5 1391.5,644.5C 1391.37,642.345 1391.87,640.345 1393,638.5C 1393.48,639.448 1393.65,640.448 1393.5,641.5 Z"/></g>
<g><path style="opacity:1" fill="#FFFFFF" d="M 1393.5,641.5 C 1398.74,675.739 1418.07,697.406 1451.5,706.5C 1452.83,707.167 1454.17,707.833 1455.5,708.5C 1429.29,713.689 1410.46,728.356 1399,752.5C 1396.07,759.217 1394.24,766.217 1393.5,773.5C 1392.83,773.167 1392.17,772.833 1391.5,772.5C 1383.84,734.68 1360.84,713.18 1322.5,708C 1351.89,705.242 1373.05,690.742 1386,664.5C 1388.77,658.085 1390.6,651.418 1391.5,644.5C 1392.17,643.5 1392.83,642.5 1393.5,641.5 Z"/></g>
<g><path style="opacity:1" fill="#FFFFFF" d="M 827.5,700.5 C 826.833,699.833 826.167,699.167 825.5,698.5C 825.343,697.127 825.51,695.793 826,694.5C 827.128,696.345 827.628,698.345 827.5,700.5 Z"/></g>
<g><path style="opacity:1" fill="#FFFFFF" d="M 825.5,698.5 C 826.167,699.167 826.833,699.833 827.5,700.5C 834.561,737.059 856.561,758.226 893.5,764C 857.489,769.513 835.489,790.013 827.5,825.5C 826.833,826.833 826.167,828.167 825.5,829.5C 819.511,794.511 799.178,773.177 764.5,765.5C 763.5,764.833 762.5,764.167 761.5,763.5C 797.618,756.382 818.951,734.716 825.5,698.5 Z"/></g>
<g><path style="opacity:1" fill="#FFFFFF" d="M 1451.5,706.5 C 1454.27,706.421 1456.94,706.921 1459.5,708C 1458.21,708.49 1456.87,708.657 1455.5,708.5C 1454.17,707.833 1452.83,707.167 1451.5,706.5 Z"/></g>
<g><path style="opacity:1" fill="#FFFFFF" d="M 761.5,763.5 C 762.5,764.167 763.5,764.833 764.5,765.5C 761.729,765.579 759.063,765.079 756.5,764C 758.134,763.506 759.801,763.34 761.5,763.5 Z"/></g>
<g><path style="opacity:1" fill="#FFFFFF" d="M 448.5,838.5 C 447.167,837.833 445.833,837.167 444.5,836.5C 483.397,829.768 505.564,806.768 511,767.5C 516.582,807.082 539.082,830.249 578.5,837C 539.082,843.751 516.582,866.918 511,906.5C 505.581,869.584 484.748,846.918 448.5,838.5 Z"/></g>
<g><path style="opacity:1" fill="#FFFFFF" d="M 1391.5,772.5 C 1392.17,772.833 1392.83,773.167 1393.5,773.5C 1393.66,774.873 1393.49,776.207 1393,777.5C 1391.99,775.975 1391.49,774.308 1391.5,772.5 Z"/></g>
<g><path style="opacity:1" fill="#FFFFFF" d="M 827.5,825.5 C 827.579,828.271 827.079,830.937 826,833.5C 825.51,832.207 825.343,830.873 825.5,829.5C 826.167,828.167 826.833,826.833 827.5,825.5 Z"/></g>
<g><path style="opacity:1" fill="#FFFFFF" d="M 444.5,836.5 C 445.833,837.167 447.167,837.833 448.5,838.5C 446.011,838.702 443.677,838.202 441.5,837C 442.448,836.517 443.448,836.351 444.5,836.5 Z"/></g>
<g><path style="opacity:1" fill="#FFFFFF" d="M 1239.5,876.5 C 1238.83,875.167 1238.17,873.833 1237.5,872.5C 1237.23,870.653 1237.57,869.986 1238.5,870.5C 1239.35,872.409 1239.68,874.409 1239.5,876.5 Z"/></g>
<g><path style="opacity:1" fill="#FFFFFF" d="M 1237.5,872.5 C 1238.17,873.833 1238.83,875.167 1239.5,876.5C 1246.49,910.828 1267.16,931.494 1301.5,938.5C 1300.17,939.167 1298.83,939.833 1297.5,940.5C 1266.04,948.727 1246.71,968.727 1239.5,1000.5C 1238.83,1001.83 1238.17,1003.17 1237.5,1004.5C 1230.81,968.405 1209.48,947.072 1173.5,940.5C 1173.17,939.833 1172.83,939.167 1172.5,938.5C 1202.57,934.212 1223.07,917.879 1234,889.5C 1235.87,883.97 1237.04,878.303 1237.5,872.5 Z"/></g>
<g><path style="opacity:1" fill="#FFFFFF" d="M 1172.5,938.5 C 1172.83,939.167 1173.17,939.833 1173.5,940.5C 1172.02,940.762 1170.69,940.429 1169.5,939.5C 1170.32,938.614 1171.32,938.281 1172.5,938.5 Z"/></g>
<g><path style="opacity:1" fill="#FFFFFF" d="M 1301.5,938.5 C 1302.87,938.343 1304.21,938.51 1305.5,939C 1302.94,940.079 1300.27,940.579 1297.5,940.5C 1298.83,939.833 1300.17,939.167 1301.5,938.5 Z"/></g>
<g><path style="opacity:1" fill="#FFFFFF" d="M 1543.5,940.5 C 1542.83,941.167 1542.17,941.833 1541.5,942.5C 1541.49,940.692 1541.99,939.025 1543,937.5C 1543.48,938.448 1543.65,939.448 1543.5,940.5 Z"/></g>
<g><path style="opacity:1" fill="#FFFFFF" d="M 1543.5,940.5 C 1548.85,975.186 1568.52,996.852 1602.5,1005.5C 1603.5,1006.17 1604.5,1006.83 1605.5,1007.5C 1569.84,1014.83 1549.17,1036.5 1543.5,1072.5C 1542.83,1071.83 1542.17,1071.17 1541.5,1070.5C 1533.38,1033.21 1510.38,1012.05 1472.5,1007C 1510.83,1001.83 1533.83,980.332 1541.5,942.5C 1542.17,941.833 1542.83,941.167 1543.5,940.5 Z"/></g>
<g><path style="opacity:1" fill="#FFFFFF" d="M 1602.5,1005.5 C 1604.99,1005.3 1607.32,1005.8 1609.5,1007C 1608.21,1007.49 1606.87,1007.66 1605.5,1007.5C 1604.5,1006.83 1603.5,1006.17 1602.5,1005.5 Z"/></g>
<g><path style="opacity:1" fill="#FFFFFF" d="M 1239.5,1000.5 C 1239.75,1003.32 1239.25,1005.99 1238,1008.5C 1237.51,1007.21 1237.34,1005.87 1237.5,1004.5C 1238.17,1003.17 1238.83,1001.83 1239.5,1000.5 Z"/></g>
<g><path style="opacity:1" fill="#FFFFFF" d="M 346.5,1201.5 C 346.5,1202.17 346.5,1202.83 346.5,1203.5C 334.829,1203.67 323.162,1203.5 311.5,1203C 281.667,1173.83 251.833,1144.67 222,1115.5C 221.5,1144.83 221.333,1174.16 221.5,1203.5C 213.167,1203.5 204.833,1203.5 196.5,1203.5C 196.5,1143.83 196.5,1084.17 196.5,1024.5C 204.833,1024.5 213.167,1024.5 221.5,1024.5C 221.5,1024.83 221.5,1025.17 221.5,1025.5C 220.502,1051.99 220.169,1078.66 220.5,1105.5C 221.791,1105.74 222.791,1105.4 223.5,1104.5C 247.235,1077.26 271.568,1050.42 296.5,1024C 307.182,1023.17 317.849,1023.33 328.5,1024.5C 303.387,1053.12 277.72,1081.28 251.5,1109C 283.035,1140.04 314.702,1170.87 346.5,1201.5 Z"/></g>
<g><path style="opacity:1" fill="#FFFFFF" d="M 221.5,1024.5 C 213.167,1024.5 204.833,1024.5 196.5,1024.5C 196.5,1084.17 196.5,1143.83 196.5,1203.5C 195.501,1143.67 195.168,1083.67 195.5,1023.5C 204.349,1023.17 213.016,1023.51 221.5,1024.5 Z"/></g>
<g><path style="opacity:1" fill="#FFFFFF" d="M 221.5,1025.5 C 220.842,1052.19 221.509,1078.52 223.5,1104.5C 222.791,1105.4 221.791,1105.74 220.5,1105.5C 220.169,1078.66 220.502,1051.99 221.5,1025.5 Z"/></g>
<g><path style="opacity:1" fill="#FFFFFF" d="M 1541.5,1070.5 C 1542.17,1071.17 1542.83,1071.83 1543.5,1072.5C 1543.66,1073.87 1543.49,1075.21 1543,1076.5C 1541.87,1074.65 1541.37,1072.65 1541.5,1070.5 Z"/></g>
<g><path style="opacity:1" fill="#FFFFFF" d="M 605.5,1203.5 C 605.5,1164.17 605.5,1124.83 605.5,1085.5C 613.167,1085.5 620.833,1085.5 628.5,1085.5C 628.173,1090.21 628.507,1094.88 629.5,1099.5C 636.711,1091.73 645.377,1086.23 655.5,1083C 674.514,1080.17 688.848,1087.01 698.5,1103.5C 704.058,1097.77 710.058,1092.61 716.5,1088C 726.226,1082.84 736.56,1081.18 747.5,1083C 764.422,1088.3 774.256,1099.8 777,1117.5C 778.431,1146.14 778.931,1174.8 778.5,1203.5C 770.5,1203.5 762.5,1203.5 754.5,1203.5C 754.907,1176.14 754.407,1148.81 753,1121.5C 750.509,1109.18 743.009,1102.85 730.5,1102.5C 719.378,1103.46 710.544,1108.46 704,1117.5C 703.5,1146.16 703.333,1174.83 703.5,1203.5C 695.5,1203.5 687.5,1203.5 679.5,1203.5C 679.667,1178.83 679.5,1154.16 679,1129.5C 679.493,1108.99 669.659,1100.15 649.5,1103C 641.209,1105.73 634.376,1110.57 629,1117.5C 628.5,1146.16 628.333,1174.83 628.5,1203.5C 620.833,1203.5 613.167,1203.5 605.5,1203.5 Z"/></g>
<g><path style="opacity:1" fill="#FFFFFF" d="M 1022.5,1091.5 C 1022.83,1099.35 1022.49,1107.02 1021.5,1114.5C 1011.38,1108.13 1000.38,1104.13 988.5,1102.5C 971.927,1105.71 969.594,1113.21 981.5,1125C 997.003,1132.5 1010.84,1142.33 1023,1154.5C 1032.63,1169.86 1031.13,1184.02 1018.5,1197C 1009.34,1203.88 999.009,1207.05 987.5,1206.5C 973.935,1206.61 961.269,1203.28 949.5,1196.5C 948.335,1187.85 948.168,1179.19 949,1170.5C 960.018,1179.23 972.518,1184.56 986.5,1186.5C 998.657,1186.19 1004.16,1180.19 1003,1168.5C 1001.88,1166.38 1000.38,1164.54 998.5,1163C 988,1156.92 977.666,1150.58 967.5,1144C 953.376,1134.92 947.543,1122.09 950,1105.5C 953.901,1094.6 961.401,1087.43 972.5,1084C 990.15,1080.15 1006.82,1082.65 1022.5,1091.5 Z"/></g>
<g><path style="opacity:1" fill="#FFFFFF" d="M 484.5,1085.5 C 518.002,1084.17 551.669,1084.17 585.5,1085.5C 585.376,1086.11 585.043,1086.44 584.5,1086.5C 551.338,1085.5 518.004,1085.17 484.5,1085.5 Z"/></g>
<g><path style="opacity:1" fill="#FFFFFF" d="M 399.5,1084.5 C 426.529,1082.77 447.363,1093.1 462,1115.5C 473.074,1138.64 471.741,1160.97 458,1182.5C 439.688,1203.38 416.855,1210.88 389.5,1205C 364.783,1198.28 349.616,1182.45 344,1157.5C 340.808,1116.51 359.308,1092.18 399.5,1084.5 Z M 397.5,1106.5 C 425.909,1104.09 441.909,1116.92 445.5,1145C 443.675,1169.49 430.509,1182.66 406,1184.5C 377.93,1181.39 365.264,1165.72 368,1137.5C 371.594,1121.08 381.427,1110.74 397.5,1106.5 Z"/></g>
<g><path style="opacity:1" fill="#FFFFFF" d="M 484.5,1085.5 C 518.004,1085.17 551.338,1085.5 584.5,1086.5C 564.662,1118.18 544.328,1149.52 523.5,1180.5C 522.957,1180.56 522.624,1180.89 522.5,1181.5C 543.489,1182.5 564.489,1182.83 585.5,1182.5C 585.5,1189.5 585.5,1196.5 585.5,1203.5C 550.832,1203.67 516.165,1203.5 481.5,1203C 502.423,1171.59 523.09,1140.09 543.5,1108.5C 544.043,1108.44 544.376,1108.11 544.5,1107.5C 524.511,1106.5 504.511,1106.17 484.5,1106.5C 484.5,1099.5 484.5,1092.5 484.5,1085.5 Z"/></g>
<g><path style="opacity:1" fill="#FFFFFF" d="M 858.5,1084.5 C 890.147,1083.06 912.314,1096.73 925,1125.5C 933.77,1156.87 924.603,1181.37 897.5,1199C 878.24,1207.77 858.573,1208.77 838.5,1202C 808.3,1186.43 796.8,1161.93 804,1128.5C 813.184,1102.52 831.351,1087.85 858.5,1084.5 Z M 855.5,1106.5 C 884.069,1104.09 900.402,1116.92 904.5,1145C 902.689,1169.48 889.522,1182.64 865,1184.5C 835.804,1181.14 823.137,1164.81 827,1135.5C 830.718,1120 840.218,1110.33 855.5,1106.5 Z"/></g>
<g><path style="opacity:1" fill="#FFFFFF" d="M 1145.5,1085.5 C 1125.43,1117.31 1105.09,1148.97 1084.5,1180.5C 1083.96,1180.56 1083.62,1180.89 1083.5,1181.5C 1104.16,1182.5 1124.82,1182.83 1145.5,1182.5C 1145.5,1189.5 1145.5,1196.5 1145.5,1203.5C 1111.26,1203.17 1077.09,1203.5 1043,1204.5C 1042.33,1203.5 1042.33,1202.5 1043,1201.5C 1063.72,1170.28 1084.22,1138.95 1104.5,1107.5C 1085.01,1106.5 1065.34,1106.17 1045.5,1106.5C 1045.5,1099.5 1045.5,1092.5 1045.5,1085.5C 1078.83,1085.5 1112.17,1085.5 1145.5,1085.5 Z"/></g>
<g><path style="opacity:1" fill="#FFFFFF" d="M 628.5,1085.5 C 620.833,1085.5 613.167,1085.5 605.5,1085.5C 605.5,1124.83 605.5,1164.17 605.5,1203.5C 604.501,1164 604.168,1124.34 604.5,1084.5C 612.684,1084.17 620.684,1084.51 628.5,1085.5 Z"/></g>
<g><path style="opacity:1" fill="#FFFFFF" d="M 1022.5,1091.5 C 1023.82,1099.34 1023.82,1107.34 1022.5,1115.5C 1021.89,1115.38 1021.56,1115.04 1021.5,1114.5C 1022.49,1107.02 1022.83,1099.35 1022.5,1091.5 Z"/></g>
<g><path style="opacity:1" fill="#FFFFFF" d="M 484.5,1106.5 C 504.511,1106.17 524.511,1106.5 544.5,1107.5C 544.376,1108.11 544.043,1108.44 543.5,1108.5C 523.833,1107.83 504.167,1107.17 484.5,1106.5 Z"/></g>
<g><path style="opacity:1" fill="#FFFFFF" d="M 1145.5,1085.5 C 1112.17,1085.5 1078.83,1085.5 1045.5,1085.5C 1045.5,1092.5 1045.5,1099.5 1045.5,1106.5C 1065.34,1106.17 1085.01,1106.5 1104.5,1107.5C 1084.5,1107.5 1064.5,1107.5 1044.5,1107.5C 1044.5,1099.83 1044.5,1092.17 1044.5,1084.5C 1078.34,1084.17 1112,1084.5 1145.5,1085.5 Z"/></g>
<g><path style="opacity:1" fill="#FFFFFF" d="M 523.5,1180.5 C 544.167,1181.17 564.833,1181.83 585.5,1182.5C 564.489,1182.83 543.489,1182.5 522.5,1181.5C 522.624,1180.89 522.957,1180.56 523.5,1180.5 Z"/></g>
<g><path style="opacity:1" fill="#FFFFFF" d="M 1084.5,1180.5 C 1104.99,1181.5 1125.66,1181.83 1146.5,1181.5C 1146.82,1189.02 1146.49,1196.35 1145.5,1203.5C 1145.5,1196.5 1145.5,1189.5 1145.5,1182.5C 1124.82,1182.83 1104.16,1182.5 1083.5,1181.5C 1083.62,1180.89 1083.96,1180.56 1084.5,1180.5 Z"/></g>
<g><path style="opacity:1" fill="#FFFFFF" d="M 346.5,1201.5 C 348.76,1202.24 348.927,1203.24 347,1204.5C 346.601,1204.27 346.435,1203.94 346.5,1203.5C 346.5,1202.83 346.5,1202.17 346.5,1201.5 Z"/></g>
<g><path style="opacity:1" fill="#FFFFFF" d="M 368.5,1272.5 C 358.111,1271.86 348.111,1272.53 338.5,1274.5C 337.596,1273.79 337.263,1272.79 337.5,1271.5C 348.014,1271.17 358.347,1271.51 368.5,1272.5 Z"/></g>
<g><path style="opacity:1" fill="#FFFFFF" d="M 738.5,1390.5 C 745.786,1426.95 767.786,1448.45 804.5,1455C 767.349,1461.65 745.349,1483.48 738.5,1520.5C 737.833,1519.5 737.167,1518.5 736.5,1517.5C 729.084,1483.75 708.417,1463.42 674.5,1456.5C 673.833,1455.83 673.167,1455.17 672.5,1454.5C 707.49,1448.51 728.823,1428.18 736.5,1393.5C 737.167,1392.5 737.833,1391.5 738.5,1390.5 Z"/></g>
<g><path style="opacity:1" fill="#FFFFFF" d="M 738.5,1390.5 C 737.833,1391.5 737.167,1392.5 736.5,1393.5C 736.678,1390.78 737.178,1388.12 738,1385.5C 738.494,1387.13 738.66,1388.8 738.5,1390.5 Z"/></g>
<g><path style="opacity:1" fill="#FFFFFF" d="M 1290.5,1399.5 C 1289.83,1398.5 1289.17,1397.5 1288.5,1396.5C 1288.34,1394.8 1288.51,1393.13 1289,1391.5C 1290.25,1394.01 1290.75,1396.68 1290.5,1399.5 Z"/></g>
<g><path style="opacity:1" fill="#FFFFFF" d="M 1288.5,1396.5 C 1289.17,1397.5 1289.83,1398.5 1290.5,1399.5C 1298.45,1434.94 1320.45,1455.44 1356.5,1461C 1320.99,1467.22 1298.99,1487.72 1290.5,1522.5C 1289.83,1523.83 1289.17,1525.17 1288.5,1526.5C 1282.4,1491.06 1261.73,1469.73 1226.5,1462.5C 1225.17,1461.83 1223.83,1461.17 1222.5,1460.5C 1251.43,1456.45 1271.93,1441.12 1284,1414.5C 1286.13,1408.64 1287.63,1402.64 1288.5,1396.5 Z"/></g>
<g><path style="opacity:1" fill="#FFFFFF" d="M 672.5,1454.5 C 673.167,1455.17 673.833,1455.83 674.5,1456.5C 672.345,1456.63 670.345,1456.13 668.5,1455C 669.793,1454.51 671.127,1454.34 672.5,1454.5 Z"/></g>
<g><path style="opacity:1" fill="#FFFFFF" d="M 1222.5,1460.5 C 1223.83,1461.17 1225.17,1461.83 1226.5,1462.5C 1224.01,1462.7 1221.68,1462.2 1219.5,1461C 1220.45,1460.52 1221.45,1460.35 1222.5,1460.5 Z"/></g>
<g><path style="opacity:1" fill="#FFFFFF" d="M 736.5,1517.5 C 737.167,1518.5 737.833,1519.5 738.5,1520.5C 738.657,1521.87 738.49,1523.21 738,1524.5C 737.023,1522.26 736.523,1519.93 736.5,1517.5 Z"/></g>
<g><path style="opacity:1" fill="#FFFFFF" d="M 1290.5,1522.5 C 1290.87,1525.4 1290.37,1528.06 1289,1530.5C 1288.51,1529.21 1288.34,1527.87 1288.5,1526.5C 1289.17,1525.17 1289.83,1523.83 1290.5,1522.5 Z"/></g>
</svg>
